# xmcd
# 
# Track frame offsets:
#     183
#     17083
#     37108
#     52608
#     64783
#     80233
#     94483
#     112033
#     127583
#     139033
#     152783
#     162833
#     177433
#     194383
#     211208
# 
# Disc length: 3000
# 
# Revision: 6
# Processed by: cddbd v1.5.2PL0 Copyright (c) Steve Scherf et al.
# Submitted via: BonkEnc v1.0
# 
DISCID=cc0bb60f
DTITLE=Cazuza and Barão Vermelho - Melhores Momentos
DYEAR=1992
DGENRE=Rock
TTITLE0=Exagerado
TTITLE1=Pro Dia Nascer Feliz
TTITLE2=Bete Balanço
TTITLE3=Maior Abandonado
TTITLE4=Subproduto do Rock (Geração do Rock)
TTITLE5=Torre de Babel
TTITLE6=Declare Guerra
TTITLE7=Eclipse Oculto
TTITLE8=Codinome Beija-Flor
TTITLE9=Eu Queria Ter Uma Bomba
TTITLE10=Todo Amor Que Houver Nessa Vida
TTITLE11=Down em Mim
TTITLE12=Só as Mães São Felizes
TTITLE13=Mal Nenhum
TTITLE14=Luz Negra
EXTD=
EXTT0=
EXTT1=
EXTT2=
EXTT3=
EXTT4=
EXTT5=
EXTT6=
EXTT7=
EXTT8=
EXTT9=
EXTT10=
EXTT11=
EXTT12=
EXTT13=
EXTT14=
PLAYORDER=
